<svg width="44" height="44" viewBox="0 0 44 44" fill="none" xmlns="http://www.w3.org/2000/svg">
<path fill-rule="evenodd" clip-rule="evenodd" d="M21.9976 20.2871L28.9301 13.3551C29.4036 12.8816 30.1713 12.8816 30.6449 13.3551C31.1184 13.8286 31.1184 14.5963 30.6449 15.0697L23.7123 22.0018L30.6413 28.9303C31.1149 29.4037 31.1149 30.1714 30.6413 30.6449C30.1678 31.1184 29.4001 31.1184 28.9266 30.6449L21.9976 23.7164L15.0734 30.64C14.5999 31.1135 13.8322 31.1135 13.3587 30.64C12.8851 30.1665 12.8851 29.3988 13.3587 28.9254L20.2828 22.0018L13.3551 15.0746C12.8816 14.6012 12.8816 13.8335 13.3551 13.36C13.8287 12.8865 14.5964 12.8865 15.0699 13.36L21.9976 20.2871Z" fill="#666666"/>
</svg>
