<svg width="44" height="44" viewBox="0 0 44 44" fill="none" xmlns="http://www.w3.org/2000/svg">
<path fill-rule="evenodd" clip-rule="evenodd" d="M21.9983 19.5569L31.8836 9.67238C32.5588 8.99723 33.6535 8.99723 34.3287 9.67238C35.0039 10.3475 35.0039 11.4422 34.3287 12.1173L24.4434 22.0019L34.3237 31.8814C34.9989 32.5565 34.9989 33.6512 34.3237 34.3263C33.6485 35.0015 32.5538 35.0015 31.8786 34.3263L21.9983 24.4468L12.125 34.3193C11.4498 34.9945 10.3551 34.9945 9.67987 34.3193C9.00467 33.6442 9.00467 32.5496 9.67987 31.8744L19.5532 22.0019L9.67486 12.1243C8.99966 11.4491 8.99966 10.3545 9.67486 9.67935C10.3501 9.0042 11.4448 9.0042 12.12 9.67935L21.9983 19.5569Z" fill="#666666"/>
</svg>
